<svg version="1.1" viewBox="0.0 0.0 443.2703412073491 239.20209973753282" fill="none" stroke="none" stroke-linecap="square" stroke-miterlimit="10" xmlns:xlink="http://www.w3.org/1999/xlink" xmlns="http://www.w3.org/2000/svg"><clipPath id="p.0"><path d="m0 0l443.27036 0l0 239.2021l-443.27036 0l0 -239.2021z" clip-rule="nonzero"/></clipPath><g clip-path="url(#p.0)"><path fill="#000000" fill-opacity="0.0" d="m0 0l443.27036 0l0 239.2021l-443.27036 0z" fill-rule="evenodd"/><g filter="url(#shadowFilter-p.1)"><use xlink:href="#p.1" transform="matrix(1.0 0.0 0.0 1.0 1.0 0.0)"/></g><defs><filter id="shadowFilter-p.1" filterUnits="userSpaceOnUse"><feGaussianBlur in="SourceAlpha" stdDeviation="4.5" result="blur"/><feComponentTransfer in="blur" color-interpolation-filters="sRGB"><feFuncR type="linear" slope="0" intercept="0.6313726"/><feFuncG type="linear" slope="0" intercept="0.84705883"/><feFuncB type="linear" slope="0" intercept="1.0"/><feFuncA type="linear" slope="0.97" intercept="0"/></feComponentTransfer></filter></defs><g id="p.1"><path fill="#ffd1b0" fill-opacity="0.9721" d="m173.8937 129.3193l0 0c0 -11.135796 9.0273285 -20.16314 20.163132 -20.16314l113.56349 0c5.347595 0 10.476166 2.1243286 14.257477 5.9056473c3.7813416 3.7813187 5.90567 8.909889 5.90567 14.257492l0 80.6501c0 11.135803 -9.027344 20.163147 -20.163147 20.163147l-113.56349 0l0 0c-11.135803 0 -20.163132 -9.027344 -20.163132 -20.163147z" fill-rule="evenodd"/></g><g filter="url(#shadowFilter-p.2)"><use xlink:href="#p.2" transform="matrix(1.0 0.0 0.0 1.0 1.0 0.0)"/></g><defs><filter id="shadowFilter-p.2" filterUnits="userSpaceOnUse"><feGaussianBlur in="SourceAlpha" stdDeviation="4.5" result="blur"/><feComponentTransfer in="blur" color-interpolation-filters="sRGB"><feFuncR type="linear" slope="0" intercept="0.6313726"/><feFuncG type="linear" slope="0" intercept="0.84705883"/><feFuncB type="linear" slope="0" intercept="1.0"/><feFuncA type="linear" slope="0.97" intercept="0"/></feComponentTransfer></filter></defs><g id="p.2"><path fill="#ffd1b0" fill-opacity="0.9721" d="m271.2953 28.416397l0 0c0 -10.686417 8.663025 -19.349468 19.349457 -19.349468l95.82074 0c5.1318054 0 10.053406 2.038599 13.682159 5.667328c3.6287231 3.6287289 5.667328 8.550343 5.667328 13.68214l0 77.39555c0 10.686417 -8.663055 19.349464 -19.349487 19.349464l-95.82074 0l0 0c-10.686432 0 -19.349457 -8.663048 -19.349457 -19.349464z" fill-rule="evenodd"/></g><path fill="#000000" fill-opacity="0.0" d="m14.611113 23.055119l414.04724 0l0 164.8189l-414.04724 0z" fill-rule="evenodd"/><path fill="#000a11" d="m55.767365 66.56136q1.078125 0 1.5625 -0.484375q0.484375 -0.484375 1.5 -2.046875l7.328125 -11.156246q0.359375 -0.59375 0.796875 -0.796875q0.453125 -0.21875 0.9375 -0.21875l1.015625 0q0.84375 0 1.234375 0.453125q0.390625 0.4375 0.390625 1.40625l0 30.531246l-0.609375 0l0 -30.531246q0 -0.484375 -0.203125 -0.875q-0.203125 -0.390625 -0.8125 -0.390625l-0.890625 0q-0.421875 0 -0.734375 0.125q-0.296875 0.125 -0.65625 0.71875l-7.3125 11.046871q-1.078125 1.609375 -1.65625 2.21875q-0.5625 0.59375 -1.890625 0.59375q-1.3125 0 -1.890625 -0.59375q-0.5625 -0.609375 -1.640625 -2.21875l-7.328125 -11.046871q-0.359375 -0.59375 -0.6875 -0.71875q-0.328125 -0.125 -0.75 -0.125l-0.90625 0q-0.59375 0 -0.78125 0.390625q-0.171875 0.390625 -0.171875 0.875l0 30.531246l-0.59375 0l0 -30.531246q0 -0.96875 0.390625 -1.40625q0.390625 -0.453125 1.15625 -0.453125l1.03125 0q0.46875 0 0.953125 0.21875q0.484375 0.203125 0.84375 0.796875l7.3125 11.156246q1.03125 1.5625 1.5 2.046875q0.484375 0.484375 1.5625 0.484375zm-10.015625 23.09375q1.140625 0 1.640625 -0.5q0.515625 -0.515625 0.515625 -1.65625l0 -21.125l3.546875 6.546875q0.53125 1.015625 1.28125 1.46875q0.75 0.453125 1.890625 0.453125l2.40625 0q1.140625 0 1.890625 -0.453125q0.75 -0.453125 1.28125 -1.46875l3.546875 -6.546875l0 21.125q0 1.140625 0.5 1.65625q0.515625 0.5 1.65625 0.5l9.25 0q1.140625 0 1.640625 -0.5q0.515625 -0.515625 0.515625 -1.65625l0 -38.89062q0 -1.140625 -0.515625 -1.640625q-0.5 -0.515625 -1.640625 -0.515625l-9.734375 0q-0.953125 0 -1.59375 0.421875q-0.625 0.421875 -1.15625 1.375l-5.34375 9.78125q-0.296875 0.546875 -0.515625 0.796875q-0.203125 0.234375 -0.5625 0.234375l-0.546875 0q-0.359375 0 -0.578125 -0.234375q-0.203125 -0.25 -0.5 -0.796875l-5.390625 -9.78125q-0.546875 -0.953125 -1.1875 -1.375q-0.625 -0.421875 -1.578125 -0.421875l-9.65625 0q-1.140625 0 -1.65625 0.515625q-0.5 0.5 -0.5 1.640625l0 38.89062q0 1.140625 0.5 1.65625q0.515625 0.5 1.65625 0.5l8.9375 0zm1.921875 0.0625l-7.796875 6.484375q-0.25 0.234375 -0.765625 0.40625q-0.5 0.1875 -1.09375 0.1875l-8.953127 0q-1.4375 0 -2.09375 -0.671875q-0.65625 -0.65625 -0.65625 -2.09375l0 -38.874996q0 -0.78125 0.203125 -1.3125q0.21875 -0.546875 0.640625 -0.90625l7.734377 -6.546875q0.296875 -0.234375 0.796875 -0.375q0.515625 -0.15625 1.125 -0.15625l9.65625 0q1.140625 0 1.890625 0.484375q0.75 0.46875 1.40625 1.609375l4.078125 7.5l0.546875 -0.953125q0.234375 -0.421875 0.5 -0.8125q0.28125 -0.390625 0.578125 -0.625l7.734375 -6.484375q0.484375 -0.359375 0.984375 -0.53125q0.515625 -0.1875 1.234375 -0.1875l9.734375 0q1.4375 0 2.09375 0.65625q0.65625 0.65625 0.65625 2.09375l0 38.89062q0 0.78125 -0.21875 1.328125q-0.203125 0.53125 -0.625 0.890625l-7.796875 6.484375q-0.234375 0.234375 -0.75 0.40625q-0.5 0.1875 -1.109375 0.1875l-9.234375 0q-1.5 0 -2.140625 -0.671875q-0.625 -0.65625 -0.625 -2.09375l0 -15.828125l-3.53125 2.9375q-0.484375 0.421875 -1.125 0.625q-0.625 0.203125 -1.453125 0.203125l-0.78125 0l0 5.53125q0 0.78125 -0.21875 1.328125q-0.203125 0.53125 -0.625 0.890625zm66.17432 7.078125l-27.84375 0q-1.4375 0 -2.09375 -0.671875q-0.65625 -0.65625 -0.65625 -2.09375l0 -38.874996q0 -0.78125 0.203125 -1.3125q0.21875 -0.546875 0.640625 -0.90625l7.734375 -6.546875q0.296875 -0.234375 0.796875 -0.375q0.515625 -0.15625 1.125 -0.15625l27.84375 0q1.4375 0 2.09375 0.65625q0.65625 0.65625 0.65625 2.09375l0 7.03125q0 0.78125 -0.21875 1.328125q-0.203125 0.53125 -0.625 0.890625l-5.15625 4.25q0.609375 0.3125 0.875 0.90625q0.265625 0.59375 0.265625 1.5624962l0 6.421875q0 0.78125 -0.21875 1.328125q-0.203125 0.53125 -0.625 0.890625l-5.328125 4.5l8.28125 0q1.4375 0 2.09375 0.65625q0.65625 0.65625 0.65625 2.09375l0 7.03125q0 0.78125 -0.21875 1.328125q-0.203125 0.53125 -0.625 0.890625l-7.796875 6.484375q-0.234375 0.234375 -0.75 0.40625q-0.5 0.1875 -1.109375 0.1875zm7.75 -7.140625q1.140625 0 1.640625 -0.5q0.515625 -0.515625 0.515625 -1.65625l0 -7.03125q0 -1.125 -0.515625 -1.640625q-0.5 -0.515625 -1.640625 -0.515625l-16.5625 0l0 -5.15625l11.703125 0q1.125 0 1.640625 -0.5q0.515625 -0.515625 0.515625 -1.65625l0 -6.421875q0 -1.1406212 -0.515625 -1.6406212q-0.515625 -0.515625 -1.640625 -0.515625l-11.703125 0l0 -4.625l16.5625 0q1.140625 0 1.640625 -0.5q0.515625 -0.515625 0.515625 -1.65625l0 -7.03125q0 -1.140625 -0.515625 -1.640625q-0.5 -0.515625 -1.640625 -0.515625l-27.84375 0q-1.140625 0 -1.65625 0.515625q-0.5 0.5 -0.5 1.640625l0 38.89062q0 1.140625 0.5 1.65625q0.515625 0.5 1.65625 0.5l27.84375 0zm-3.25 -6.0l0 0.59375l-20.21875 0l0 -32.39062l20.21875 0l0 0.59375l-19.609375 0l0 15.062496l14.75 0l0 0.59375l-14.75 0l0 15.546875l19.609375 0zm39.599335 -17.09375q1.078125 0 1.5625 -0.484375q0.484375 -0.484375 1.5 -2.046875l7.328125 -11.156246q0.359375 -0.59375 0.796875 -0.796875q0.453125 -0.21875 0.9375 -0.21875l1.015625 0q0.84375 0 1.234375 0.453125q0.390625 0.4375 0.390625 1.40625l0 30.531246l-0.609375 0l0 -30.531246q0 -0.484375 -0.203125 -0.875q-0.203125 -0.390625 -0.8125 -0.390625l-0.890625 0q-0.421875 0 -0.734375 0.125q-0.296875 0.125 -0.65625 0.71875l-7.3125 11.046871q-1.078125 1.609375 -1.65625 2.21875q-0.5625 0.59375 -1.890625 0.59375q-1.3125 0 -1.890625 -0.59375q-0.5625 -0.609375 -1.640625 -2.21875l-7.328125 -11.046871q-0.359375 -0.59375 -0.6875 -0.71875q-0.328125 -0.125 -0.75 -0.125l-0.90625 0q-0.59375 0 -0.78125 0.390625q-0.171875 0.390625 -0.171875 0.875l0 30.531246l-0.59375 0l0 -30.531246q0 -0.96875 0.390625 -1.40625q0.390625 -0.453125 1.15625 -0.453125l1.03125 0q0.46875 0 0.953125 0.21875q0.484375 0.203125 0.84375 0.796875l7.3125 11.156246q1.03125 1.5625 1.5 2.046875q0.484375 0.484375 1.5625 0.484375zm-10.015625 23.09375q1.140625 0 1.640625 -0.5q0.515625 -0.515625 0.515625 -1.65625l0 -21.125l3.546875 6.546875q0.53125 1.015625 1.28125 1.46875q0.75 0.453125 1.890625 0.453125l2.40625 0q1.140625 0 1.890625 -0.453125q0.75 -0.453125 1.28125 -1.46875l3.546875 -6.546875l0 21.125q0 1.140625 0.5 1.65625q0.515625 0.5 1.65625 0.5l9.25 0q1.140625 0 1.640625 -0.5q0.515625 -0.515625 0.515625 -1.65625l0 -38.89062q0 -1.140625 -0.515625 -1.640625q-0.5 -0.515625 -1.640625 -0.515625l-9.734375 0q-0.953125 0 -1.59375 0.421875q-0.625 0.421875 -1.15625 1.375l-5.34375 9.78125q-0.296875 0.546875 -0.515625 0.796875q-0.203125 0.234375 -0.5625 0.234375l-0.546875 0q-0.359375 0 -0.578125 -0.234375q-0.203125 -0.25 -0.5 -0.796875l-5.390625 -9.78125q-0.546875 -0.953125 -1.1875 -1.375q-0.625 -0.421875 -1.578125 -0.421875l-9.65625 0q-1.140625 0 -1.65625 0.515625q-0.5 0.5 -0.5 1.640625l0 38.89062q0 1.140625 0.5 1.65625q0.515625 0.5 1.65625 0.5l8.9375 0zm1.921875 0.0625l-7.796875 6.484375q-0.25 0.234375 -0.765625 0.40625q-0.5 0.1875 -1.09375 0.1875l-8.953125 0q-1.4375 0 -2.09375 -0.671875q-0.65625 -0.65625 -0.65625 -2.09375l0 -38.874996q0 -0.78125 0.203125 -1.3125q0.21875 -0.546875 0.640625 -0.90625l7.734375 -6.546875q0.296875 -0.234375 0.796875 -0.375q0.515625 -0.15625 1.125 -0.15625l9.65625 0q1.140625 0 1.890625 0.484375q0.75 0.46875 1.40625 1.609375l4.078125 7.5l0.546875 -0.953125q0.234375 -0.421875 0.5 -0.8125q0.28125 -0.390625 0.578125 -0.625l7.734375 -6.484375q0.484375 -0.359375 0.984375 -0.53125q0.515625 -0.1875 1.234375 -0.1875l9.734375 0q1.4375 0 2.09375 0.65625q0.65625 0.65625 0.65625 2.09375l0 38.89062q0 0.78125 -0.21875 1.328125q-0.203125 0.53125 -0.625 0.890625l-7.796875 6.484375q-0.234375 0.234375 -0.75 0.40625q-0.5 0.1875 -1.109375 0.1875l-9.234375 0q-1.5 0 -2.140625 -0.671875q-0.625 -0.65625 -0.625 -2.09375l0 -15.828125l-3.53125 2.9375q-0.484375 0.421875 -1.125 0.625q-0.625 0.203125 -1.453125 0.203125l-0.78125 0l0 5.53125q0 0.78125 -0.21875 1.328125q-0.203125 0.53125 -0.625 0.890625zm69.78369 4.203125q-2.109375 1.796875 -5.890625 2.78125q-3.78125 1.0 -9.71875 1.0q-5.875 0 -9.625 -1.234375q-3.75 -1.234375 -5.890625 -3.28125q-2.125 -2.03125 -2.9375 -4.671875q-0.796875 -2.640625 -0.796875 -5.453125l0 -18.671875q0 -2.7499962 0.765625 -5.124996q0.78125 -2.375 2.828125 -4.046875l7.796875 -6.484375q2.109375 -1.796875 5.859375 -2.78125q3.75 -1.0 9.75 -1.0q5.875 0 9.625 0.96875q3.75 0.953125 5.875 2.671875q2.140625 1.703125 2.90625 4.078125q0.78125 2.359375 0.78125 5.1875l0 20.453121q0 2.765625 -0.78125 5.109375q-0.765625 2.328125 -2.8125 4.015625l-7.734375 6.484375zm10.734375 -15.609375l0 -20.453121q0 -2.765625 -0.8125 -5.015625q-0.8125 -2.25 -2.890625 -3.859375q-2.0625 -1.625 -5.6875 -2.515625q-3.625 -0.90625 -9.203125 -0.90625q-5.59375 0 -9.25 0.90625q-3.65625 0.890625 -5.734375 2.515625q-2.0625 1.609375 -2.875 3.859375q-0.8125 2.25 -0.8125 5.015625l0 20.453121q0 2.765625 0.8125 5.015625q0.8125 2.25 2.875 3.84375q2.078125 1.578125 5.734375 2.484375q3.65625 0.90625 9.25 0.90625q5.578125 0 9.203125 -0.90625q3.625 -0.90625 5.6875 -2.484375q2.078125 -1.59375 2.890625 -3.84375q0.8125 -2.25 0.8125 -5.015625zm-6.546875 -1.375q0 3.59375 -2.578125 5.84375q-2.578125 2.25 -9.59375 2.25q-7.015625 0 -9.546875 -2.25q-2.515625 -2.25 -2.515625 -5.84375l0 -17.703121q0 -3.59375 2.515625 -5.84375q2.53125 -2.25 9.546875 -2.25q7.015625 0 9.59375 2.25q2.578125 2.25 2.578125 5.84375l0 17.703121zm-23.640625 0q0 3.359375 2.40625 5.4375q2.40625 2.0625 9.0625 2.0625q6.65625 0 9.109375 -2.0625q2.46875 -2.078125 2.46875 -5.4375l0 -17.703121q0 -3.359375 -2.46875 -5.421875q-2.453125 -2.078125 -9.109375 -2.078125q-6.65625 0 -9.0625 2.078125q-2.40625 2.0625 -2.40625 5.421875l0 17.703121zm6.546875 -0.78125l0 -16.140621q0 -1.140625 0.890625 -1.953125q0.90625 -0.8125 4.15625 -0.8125q3.234375 0 4.125 0.8125q0.90625 0.8125 0.90625 1.953125l0 16.140621q0 1.203125 -0.90625 2.015625q-0.890625 0.796875 -4.125 0.796875q-3.25 0 -4.15625 -0.796875q-0.890625 -0.8125 -0.890625 -2.015625zm0.59375 0q0 0.59375 0.234375 1.046875q0.25 0.453125 0.90625 0.75l0 -11.390625q0 -0.609375 -0.234375 -1.046875q-0.234375 -0.453125 -0.90625 -0.703125l0 11.34375zm56.829315 -23.703121l-13.07811 0l0 17.343746l13.07811 0q3.71875 0 4.96875 -1.796875q1.265625 -1.796875 1.265625 -5.109371l0 -4.1875q0 -2.765625 -1.53125 -4.5q-1.53125 -1.75 -4.703125 -1.75zm-6.609375 4.796875l4.5 0q1.5625 0 2.09375 0.8125q0.546875 0.8125 0.546875 2.015625l0 2.03125q0 1.203125 -0.546875 2.0156212q-0.53125 0.8125 -2.09375 0.8125l-4.5 0l0 -7.687496zm-6.4687347 26.999996l-0.609375 0l0 -32.39062l13.687485 0q3.484375 0 5.15625 1.953125q1.6875 1.9375 1.6875 4.890625l0 4.140625q0 2.7499962 -0.734375 4.531246q-0.71875 1.765625 -2.875 2.421875l0.65625 0q3.671875 0 5.46875 1.65625q1.796875 1.640625 1.796875 4.765625l0 8.03125l-0.59375 0l0 -8.03125q0 -2.9375 -1.625 -4.40625q-1.625 -1.46875 -5.046875 -1.46875l-16.968735 0l0 13.90625zm4.3125 5.40625q1.1406097 0 1.6406097 -0.5q0.515625 -0.515625 0.515625 -1.65625l0 -11.765625l8.40625 0q1.265625 0 1.765625 0.640625q0.515625 0.625 0.515625 1.9375l0 9.1875q0 1.140625 0.5 1.65625q0.515625 0.5 1.65625 0.5l9.296875 0q1.140625 0 1.65625 -0.5q0.515625 -0.515625 0.515625 -1.65625l0 -12.71875q0 -3.78125 -2.015625 -6.0625q-2.015625 -2.28125 -5.25 -2.640625q1.859375 -0.78125 2.609375 -2.5468712q0.75 -1.78125 0.75 -4.296875l0 -2.765625q0 -4.4375 -2.546875 -7.21875q-2.546875 -2.796875 -9.265625 -2.796875l-19.98436 0q-1.140625 0 -1.65625 0.515625q-0.5 0.5 -0.5 1.640625l0 38.89062q0 1.140625 0.5 1.65625q0.515625 0.5 1.65625 0.5l9.234375 0zm1.9218597 0.0625l-7.7968597 6.484375q-0.25 0.234375 -0.765625 0.40625q-0.5 0.1875 -1.09375 0.1875l-9.25 0q-1.4375 0 -2.09375 -0.671875q-0.65625 -0.65625 -0.65625 -2.09375l0 -38.874996q0 -0.78125 0.203125 -1.3125q0.21875 -0.546875 0.640625 -0.90625l7.734375 -6.546875q0.296875 -0.234375 0.796875 -0.375q0.515625 -0.15625 1.125 -0.15625l19.98436 0q7.125 0 9.765625 2.96875q2.640625 2.96875 2.640625 7.640625l0 2.765625q0 2.21875 -0.546875 3.875q-0.53125 1.6406212 -1.734375 2.6718712l-0.046875 0q2.8125 0.78125 4.515625 3.125q1.71875 2.328125 1.71875 5.875l0 12.71875q0 0.78125 -0.21875 1.328125q-0.203125 0.53125 -0.625 0.890625l-7.796875 6.484375q-0.234375 0.234375 -0.75 0.40625q-0.515625 0.1875 -1.109375 0.1875l-9.296875 0q-1.4375 0 -2.109375 -0.671875q-0.65625 -0.65625 -0.65625 -2.09375l0 -9.171875q0 -0.96875 -0.359375 -1.46875q-0.359375 -0.515625 -1.3125 -0.515625l-0.0625 0l0 4.625q0 0.78125 -0.21875 1.328125q-0.203125 0.53125 -0.625 0.890625zm49.62372 7.078125l-9.71875 0q-1.5 0 -2.140625 -0.671875q-0.625 -0.65625 -0.625 -2.09375l0 -7.5l-9.0625 -12.109375q-1.4375 -1.921875 -1.921875 -3.359375q-0.46875 -1.453125 -0.46875 -4.390625l0 -11.515621q0 -0.78125 0.203125 -1.3125q0.21875 -0.546875 0.625 -0.90625l7.75 -6.546875q0.296875 -0.234375 0.796875 -0.375q0.515625 -0.15625 1.125 -0.15625l9.234375 0q1.4375 0 2.09375 0.65625q0.671875 0.65625 0.671875 2.09375l0 9.84375q0 0.546875 0.046875 1.09375q0.0625 0.53125 0.375 1.125l0.71875 1.03125l0 -6.546875q0 -0.78125 0.203125 -1.3125q0.203125 -0.546875 0.625 -0.90625l7.75 -6.546875q0.296875 -0.234375 0.796875 -0.375q0.515625 -0.15625 1.125 -0.15625l8.9375 0q1.4375 0 2.09375 0.65625q0.65625 0.65625 0.65625 2.09375l0 11.53125q0 2.9375 -0.484375 4.374996q-0.46875 1.4375 -1.90625 3.359375l-9.0 12.1875l0 7.4375q0 0.78125 -0.21875 1.328125q-0.203125 0.53125 -0.625 0.890625l-7.796875 6.484375q-0.25 0.234375 -0.765625 0.40625q-0.5 0.1875 -1.09375 0.1875zm7.734375 -7.140625q1.140625 0 1.640625 -0.5q0.515625 -0.515625 0.515625 -1.65625l0 -7.625l9.125 -12.359375q1.328125 -1.859375 1.796875 -3.234375q0.484375 -1.3906212 0.484375 -4.140621l0 -11.53125q0 -1.140625 -0.515625 -1.640625q-0.5 -0.515625 -1.640625 -0.515625l-8.9375 0q-1.140625 0 -1.65625 0.515625q-0.515625 0.5 -0.515625 1.640625l0 9.84375q0 0.609375 -0.0625 1.265625q-0.046875 0.65625 -0.46875 1.25l-2.765625 4.328121q-0.296875 0.546875 -0.625 0.78125q-0.328125 0.234375 -0.8125 0.234375l-0.59375 0q-0.484375 0 -0.8125 -0.234375q-0.328125 -0.234375 -0.640625 -0.78125l-2.75 -4.328121q-0.421875 -0.59375 -0.484375 -1.25q-0.0625 -0.65625 -0.0625 -1.265625l0 -9.84375q0 -1.140625 -0.515625 -1.640625q-0.5 -0.515625 -1.640625 -0.515625l-9.234375 0q-1.140625 0 -1.65625 0.515625q-0.515625 0.5 -0.515625 1.640625l0 11.53125q0 2.75 0.453125 4.140621q0.453125 1.375 1.828125 3.234375l9.1875 12.296875l0 7.6875q0 1.140625 0.5 1.65625q0.515625 0.5 1.65625 0.5l9.71875 0zm-4.140625 -15.65625l-0.421875 0l0 10.25l-0.59375 0l0 -10.25l-0.59375 0q-1.328125 0 -2.375 -0.59375q-1.046875 -0.609375 -2.015625 -1.9375l-5.8125 -8.093746q-0.671875 -0.90625 -0.796875 -2.09375q-0.109375 -1.203125 -0.109375 -2.53125l0 -6.890625l0.609375 0l0 6.890625q0 1.265625 0.109375 2.375q0.125 1.109375 0.71875 2.015625l5.828125 8.093746q0.78125 1.203125 1.796875 1.6875q1.015625 0.46875 2.046875 0.46875l1.609375 0q1.140625 0 2.0625 -0.5q0.9375 -0.515625 1.84375 -1.65625l6.0 -8.093746q0.59375 -0.78125 0.71875 -1.953125q0.125 -1.171875 0.125 -2.4375l0 -6.890625l0.59375 0l0 6.890625q0 1.328125 -0.09375 2.5q-0.09375 1.171875 -0.8125 2.125l-6.0 8.093746q-0.953125 1.328125 -2.0 1.9375q-1.046875 0.59375 -2.4375 0.59375z" fill-rule="nonzero"/><path fill="#000a11" d="m151.76736 138.56136q1.078125 0 1.5625 -0.484375q0.484375 -0.484375 1.5 -2.046875l7.328125 -11.15625q0.359375 -0.59375 0.796875 -0.796875q0.453125 -0.21875 0.9375 -0.21875l1.015625 0q0.84375 0 1.234375 0.453125q0.390625 0.4375 0.390625 1.40625l0 30.53125l-0.609375 0l0 -30.53125q0 -0.484375 -0.203125 -0.875q-0.203125 -0.390625 -0.8125 -0.390625l-0.890625 0q-0.421875 0 -0.734375 0.125q-0.296875 0.125 -0.65625 0.71875l-7.3125 11.046875q-1.078125 1.609375 -1.65625 2.21875q-0.5625 0.59375 -1.890625 0.59375q-1.3125 0 -1.890625 -0.59375q-0.5625 -0.609375 -1.640625 -2.21875l-7.328125 -11.046875q-0.359375 -0.59375 -0.6875 -0.71875q-0.328125 -0.125 -0.75 -0.125l-0.90625 0q-0.59375 0 -0.78125 0.390625q-0.171875 0.390625 -0.171875 0.875l0 30.53125l-0.59375 0l0 -30.53125q0 -0.96875 0.390625 -1.40625q0.390625 -0.453125 1.15625 -0.453125l1.03125 0q0.46875 0 0.953125 0.21875q0.484375 0.203125 0.84375 0.796875l7.3125 11.15625q1.03125 1.5625 1.5 2.046875q0.484375 0.484375 1.5625 0.484375zm-10.015625 23.09375q1.140625 0 1.640625 -0.5q0.515625 -0.515625 0.515625 -1.65625l0 -21.125l3.546875 6.546875q0.53125 1.015625 1.28125 1.46875q0.75 0.453125 1.890625 0.453125l2.40625 0q1.140625 0 1.890625 -0.453125q0.75 -0.453125 1.28125 -1.46875l3.546875 -6.546875l0 21.125q0 1.140625 0.5 1.65625q0.515625 0.5 1.65625 0.5l9.25 0q1.140625 0 1.640625 -0.5q0.515625 -0.515625 0.515625 -1.65625l0 -38.890625q0 -1.140625 -0.515625 -1.640625q-0.5 -0.515625 -1.640625 -0.515625l-9.734375 0q-0.953125 0 -1.59375 0.421875q-0.625 0.421875 -1.15625 1.375l-5.34375 9.78125q-0.296875 0.546875 -0.515625 0.796875q-0.203125 0.234375 -0.5625 0.234375l-0.546875 0q-0.359375 0 -0.578125 -0.234375q-0.203125 -0.25 -0.5 -0.796875l-5.390625 -9.78125q-0.546875 -0.953125 -1.1875 -1.375q-0.625 -0.421875 -1.578125 -0.421875l-9.65625 0q-1.140625 0 -1.65625 0.515625q-0.5 0.5 -0.5 1.640625l0 38.890625q0 1.140625 0.5 1.65625q0.515625 0.5 1.65625 0.5l8.9375 0zm1.921875 0.0625l-7.796875 6.484375q-0.25 0.234375 -0.765625 0.40625q-0.5 0.1875 -1.09375 0.1875l-8.953125 0q-1.4375 0 -2.09375 -0.671875q-0.65625 -0.65625 -0.65625 -2.09375l0 -38.875q0 -0.78125 0.203125 -1.3125q0.21875 -0.546875 0.640625 -0.90625l7.734375 -6.546875q0.296875 -0.234375 0.796875 -0.375q0.515625 -0.15625 1.125 -0.15625l9.65625 0q1.140625 0 1.890625 0.484375q0.75 0.46875 1.40625 1.609375l4.078125 7.5l0.546875 -0.953125q0.234375 -0.421875 0.5 -0.8125q0.28125 -0.390625 0.578125 -0.625l7.734375 -6.484375q0.484375 -0.359375 0.984375 -0.53125q0.515625 -0.1875 1.234375 -0.1875l9.734375 0q1.4375 0 2.09375 0.65625q0.65625 0.65625 0.65625 2.09375l0 38.890625q0 0.78125 -0.21875 1.328125q-0.203125 0.53125 -0.625 0.890625l-7.796875 6.484375q-0.234375 0.234375 -0.75 0.40625q-0.5 0.1875 -1.109375 0.1875l-9.234375 0q-1.5 0 -2.140625 -0.671875q-0.625 -0.65625 -0.625 -2.09375l0 -15.828125l-3.53125 2.9375q-0.484375 0.421875 -1.125 0.625q-0.625 0.203125 -1.453125 0.203125l-0.78125 0l0 5.53125q0 0.78125 -0.21875 1.328125q-0.203125 0.53125 -0.625 0.890625zm49.97119 -18.25l0 1.875l23.40625 0l0 -1.875q0 -1.609375 -0.28125 -2.984375q-0.265625 -1.390625 -0.671875 -2.59375l-4.140625 -9.78125q-0.671875 -1.546875 -1.390625 -2.59375q-0.71875 -1.0625 -2.390625 -1.0625l-5.890625 0q-1.796875 0 -2.515625 1.0625q-0.71875 1.046875 -1.3125 2.546875l-3.84375 9.828125q-0.421875 1.203125 -0.703125 2.59375q-0.265625 1.375 -0.265625 2.984375zm9.609375 -12.40625q0.234375 -0.546875 0.5 -0.78125q0.28125 -0.25 0.640625 -0.25l1.5 0q0.359375 0 0.625 0.25q0.265625 0.234375 0.515625 0.78125l2.8125 9.109375l-9.421875 0l2.828125 -9.109375zm13.796875 25.1875l0 -10.3125l-23.40625 0l0 10.3125l-0.59375 0l0 -12.78125q0 -1.671875 0.265625 -3.078125q0.28125 -1.421875 0.75 -2.734375l3.84375 -9.84375q0.65625 -1.671875 1.5 -2.8125q0.84375 -1.140625 2.875 -1.140625l5.890625 0q1.96875 0 2.78125 1.140625q0.8125 1.140625 1.53125 2.875l4.140625 9.78125q0.484375 1.3125 0.75 2.734375q0.265625 1.40625 0.265625 3.078125l0 12.78125l-0.59375 0zm-17.21875 3.25l0 -8.40625l10.625 0l0 8.40625q0 1.140625 0.5625 1.65625q0.578125 0.5 1.765625 0.5l9.0625 0q1.140625 0 1.640625 -0.5q0.515625 -0.515625 0.515625 -1.65625l0 -15.84375q0 -1.796875 -0.578125 -4.140625q-0.5625 -2.34375 -1.75 -5.453125l-5.21875 -13.625q-0.359375 -1.015625 -1.109375 -1.5q-0.75 -0.484375 -1.890625 -0.484375l-16.140625 0q-1.203125 0 -1.953125 0.484375q-0.75 0.484375 -1.109375 1.5l-5.21875 13.625q-1.203125 3.109375 -1.78125 5.453125q-0.5625 2.34375 -0.5625 4.140625l0 15.84375q0 1.140625 0.5 1.65625q0.515625 0.5 1.65625 0.5l8.828125 0q1.140625 0 1.640625 -0.5q0.515625 -0.515625 0.515625 -1.65625zm-8.046875 8.703125q-0.234375 0.234375 -0.75 0.40625q-0.5 0.1875 -1.109375 0.1875l-8.8125 0q-1.4375 0 -2.109375 -0.671875q-0.65625 -0.65625 -0.65625 -2.09375l0 -15.828125q0 -1.859375 0.5625 -4.234375q0.578125 -2.375 1.84375 -5.609375l5.15625 -13.5625q0.1875 -0.546875 0.453125 -0.9375q0.265625 -0.390625 0.5625 -0.6875l0.0625 -0.0625l7.6875 -6.40625q0.46875 -0.421875 1.125 -0.625q0.671875 -0.21875 1.515625 -0.21875l16.140625 0q1.375 0 2.234375 0.578125q0.875 0.5625 1.296875 1.765625l5.21875 13.609375q1.265625 3.25 1.828125 5.625q0.578125 2.359375 0.578125 4.21875l0 15.84375q0 0.78125 -0.21875 1.328125q-0.203125 0.53125 -0.625 0.890625l-7.796875 6.484375q-0.234375 0.234375 -0.75 0.40625q-0.515625 0.1875 -1.109375 0.1875l-9.0625 0q-1.5 0 -2.21875 -0.6875q-0.71875 -0.6875 -0.71875 -2.078125l0 -7.796875l-1.6875 0l0 1.265625q0 0.78125 -0.21875 1.328125q-0.203125 0.53125 -0.609375 0.890625l-7.8125 6.484375zm55.868713 0.59375l-9.71875 0q-1.4375 0 -2.109375 -0.671875q-0.65625 -0.65625 -0.65625 -2.09375l0 -28.859375l-8.21875 0q-1.4375 0 -2.109375 -0.65625q-0.65625 -0.65625 -0.65625 -2.09375l0 -7.265625q0 -0.78125 0.203125 -1.3125q0.21875 -0.546875 0.640625 -0.90625l7.734375 -6.546875q0.3125 -0.234375 0.8125 -0.375q0.515625 -0.15625 1.109375 -0.15625l31.6875 0q1.4375 0 2.09375 0.65625q0.671875 0.65625 0.671875 2.09375l0 7.265625q0 0.78125 -0.21875 1.328125q-0.203125 0.53125 -0.625 0.890625l-7.796875 6.484375q-0.25 0.234375 -0.765625 0.421875q-0.5 0.171875 -1.09375 0.171875l-0.484375 0l0 22.328125q0 0.78125 -0.21875 1.328125q-0.203125 0.53125 -0.625 0.890625l-7.796875 6.484375q-0.25 0.234375 -0.765625 0.40625q-0.5 0.1875 -1.09375 0.1875zm7.734375 -7.140625q1.140625 0 1.640625 -0.5q0.515625 -0.515625 0.515625 -1.65625l0 -29.46875l8.828125 0q1.140625 0 1.640625 -0.5q0.515625 -0.515625 0.515625 -1.65625l0 -7.265625q0 -1.140625 -0.515625 -1.640625q-0.5 -0.515625 -1.640625 -0.515625l-31.6875 0q-1.140625 0 -1.65625 0.515625q-0.5 0.5 -0.5 1.640625l0 7.265625q0 1.140625 0.5 1.65625q0.515625 0.5 1.65625 0.5l8.828125 0l0 29.46875q0 1.140625 0.5 1.65625q0.515625 0.5 1.65625 0.5l9.71875 0zm-5.15625 -5.40625l0 -31.796875l-12.296875 0l0 -0.59375l25.203125 0l0 0.59375l-12.3125 0l0 31.796875l-0.59375 0zm50.82556 12.546875l-14.640625 0q-7.859375 0 -11.609375 -4.078125q-3.75 -4.078125 -3.75 -10.5625l0 -16.859375q0 -3.296875 0.953125 -5.71875q0.953125 -2.4375 2.8125 -4.0625l7.8125 -6.546875q1.859375 -1.546875 4.734375 -2.328125q2.875 -0.78125 6.78125 -0.78125l14.640625 0q1.4375 0 2.09375 0.65625q0.671875 0.65625 0.671875 2.09375l0 7.265625q0 0.78125 -0.21875 1.328125q-0.203125 0.53125 -0.625 0.890625l-7.796875 6.484375q-0.25 0.234375 -0.765625 0.421875q-0.5 0.171875 -1.09375 0.171875l-7.390625 0l0 10.140625q0 1.265625 0.78125 1.78125q0.78125 0.5 2.28125 0.5l12.0625 0q1.4375 0 2.09375 0.671875q0.671875 0.65625 0.671875 2.09375l0 7.140625q0 0.78125 -0.21875 1.328125q-0.203125 0.53125 -0.625 0.890625l-7.796875 6.484375q-0.25 0.234375 -0.765625 0.40625q-0.5 0.1875 -1.09375 0.1875zm7.734375 -7.140625q1.140625 0 1.640625 -0.5q0.515625 -0.515625 0.515625 -1.65625l0 -7.140625q0 -1.140625 -0.515625 -1.640625q-0.5 -0.515625 -1.640625 -0.515625l-12.0625 0q-1.859375 0 -2.765625 -0.6875q-0.890625 -0.703125 -0.890625 -2.203125l0 -14.28125q0 -1.5 0.890625 -2.25q0.90625 -0.75 2.765625 -0.75l12.0625 0q1.140625 0 1.640625 -0.5q0.515625 -0.515625 0.515625 -1.65625l0 -7.265625q0 -1.140625 -0.515625 -1.640625q-0.5 -0.515625 -1.640625 -0.515625l-14.640625 0q-7.5 0 -11.140625 3.03125q-3.625 3.03125 -3.625 9.265625l0 18.671875q0 6.234375 3.625 9.234375q3.640625 3.0 11.140625 3.0l14.640625 0zm-3.296875 -6.0l0 0.59375l-10.03125 0q-5.8125 0 -7.703125 -1.796875q-1.890625 -1.796875 -1.890625 -5.9375l0 -16.796875q0 -4.265625 1.921875 -6.0625q1.921875 -1.796875 7.671875 -1.796875l10.03125 0l0 0.59375l-10.03125 0q-5.265625 0 -7.140625 1.65625q-1.859375 1.640625 -1.859375 5.609375l0 16.796875q0 3.90625 1.796875 5.53125q1.8125 1.609375 7.203125 1.609375l10.03125 0zm24.711243 0.59375l0 -32.390625l0.609375 0l0 15.890625l23.03125 0l0 -15.890625l0.609375 0l0 32.390625l-0.609375 0l0 -15.890625l-23.03125 0l0 15.890625l-0.609375 0zm4.984375 5.40625q1.140625 0 1.640625 -0.5q0.515625 -0.515625 0.515625 -1.65625l0 -13.328125l10.03125 0l0 13.328125q0 1.140625 0.5 1.65625q0.515625 0.5 1.65625 0.5l9.296875 0q1.140625 0 1.640625 -0.5q0.515625 -0.515625 0.515625 -1.65625l0 -38.890625q0 -1.140625 -0.515625 -1.640625q-0.5 -0.515625 -1.640625 -0.515625l-9.296875 0q-1.140625 0 -1.65625 0.515625q-0.5 0.5 -0.5 1.640625l0 13.03125l-10.03125 0l0 -13.03125q0 -1.140625 -0.515625 -1.640625q-0.5 -0.515625 -1.640625 -0.515625l-9.296875 0q-1.140625 0 -1.65625 0.515625q-0.5 0.5 -0.5 1.640625l0 38.890625q0 1.140625 0.5 1.65625q0.515625 0.5 1.65625 0.5l9.296875 0zm1.921875 0.0625l-7.796875 6.484375q-0.25 0.234375 -0.765625 0.40625q-0.5 0.1875 -1.09375 0.1875l-9.3125 0q-1.4375 0 -2.09375 -0.671875q-0.65625 -0.65625 -0.65625 -2.09375l0 -38.875q0 -0.78125 0.203125 -1.3125q0.21875 -0.546875 0.640625 -0.90625l7.734375 -6.546875q0.296875 -0.234375 0.796875 -0.375q0.515625 -0.15625 1.125 -0.15625l9.296875 0q1.4375 0 2.09375 0.65625q0.671875 0.65625 0.671875 2.09375l0 12.421875l1.078125 0l0 -5.875q0 -0.78125 0.203125 -1.3125q0.21875 -0.546875 0.640625 -0.90625l7.734375 -6.546875q0.296875 -0.234375 0.796875 -0.375q0.515625 -0.15625 1.125 -0.15625l9.296875 0q1.4375 0 2.09375 0.65625q0.671875 0.65625 0.671875 2.09375l0 38.890625q0 0.78125 -0.21875 1.328125q-0.203125 0.53125 -0.625 0.890625l-7.796875 6.484375q-0.25 0.234375 -0.765625 0.40625q-0.5 0.1875 -1.09375 0.1875l-9.3125 0q-1.4375 0 -2.09375 -0.671875q-0.65625 -0.65625 -0.65625 -2.09375l0 -12.71875l-1.078125 0l0 6.1875q0 0.78125 -0.21875 1.328125q-0.203125 0.53125 -0.625 0.890625z" fill-rule="nonzero"/></g></svg>